# xmcd CD database file
#
# Track frame offsets:
#	150
#	12706
#	26886
#	40044
#	53853
#	66539
#	79841
#	92680
#	107359
#	119437
#	133632
#	146073
#	159893
#	173661
#	186905
#	200866
#	215093
#	229777
#	245902
#	265717
#	291420
#	304664
#
# Disc length: 4345 seconds
#
# Revision: 0
# Processed by: cddbd v1.5.2PL0 Copyright (c) Steve Scherf et al.
# Submitted via: CDex 1.51
#
DISCID=4e10f716
DTITLE=Eddie Condon - Home Cooking
DYEAR=2009
DGENRE=Jazz
TTITLE0=China Boy
TTITLE1=Nobody's Sweetheart
TTITLE2=Tere'll Be Some Changes Made
TTITLE3=Makin' Friends
TTITLE4=Margie
TTITLE5=The Eel
TTITLE6=Home Cooking
TTITLE7=Carnegie Drag
TTITLE8=Carnegie Jump
TTITLE9=Someday Sweetheart
TTITLE10=Dancing Fool
TTITLE11=Impromptu Ensemble No. 1
TTITLE12=Sheik Of Araby
TTITLE13=Farewell Blues
TTITLE14=Stars Fell On Alabama
TTITLE15=We Called It Music
TTITLE16=Aunt Hagar's Blues
TTITLE17=Memphis Blues
TTITLE18=Riverboat Shuffle
TTITLE19=Blues my Naughty Sweetie Gives To Me
TTITLE20=I'm Coming, Virginia
TTITLE21=At The Jazz Band Ball
EXTD=YEAR: 2009
EXTT0=
EXTT1=
EXTT2=
EXTT3=
EXTT4=
EXTT5=
EXTT6=
EXTT7=
EXTT8=
EXTT9=
EXTT10=
EXTT11=
EXTT12=
EXTT13=
EXTT14=
EXTT15=
EXTT16=
EXTT17=
EXTT18=
EXTT19=
EXTT20=
EXTT21=
PLAYORDER=
